<?xml version="1.0" standalone="no"?>
<!DOCTYPE svg PUBLIC "-//W3C//DTD SVG 20010904//EN"
 "http://www.w3.org/TR/2001/REC-SVG-20010904/DTD/svg10.dtd">
<svg version="1.0" xmlns="http://www.w3.org/2000/svg"
 width="512.000000pt" height="512.000000pt" viewBox="0 0 512.000000 512.000000"
 preserveAspectRatio="xMidYMid meet">
<metadata>
Created by potrace 1.11, written by Peter Selinger 2001-2013
</metadata>
<g transform="translate(0.000000,512.000000) scale(0.100000,-0.100000)"
fill="#000000" stroke="none">
<path d="M2840 3933 c-8 -4 -21 -14 -28 -25 -7 -10 -19 -18 -27 -18 -8 0 -21
-10 -29 -21 -12 -18 -21 -20 -50 -15 -22 4 -52 1 -78 -7 -24 -8 -79 -17 -122
-21 -81 -7 -117 -20 -172 -62 -21 -15 -39 -21 -54 -17 -15 4 -27 1 -34 -9 -6
-8 -42 -23 -81 -33 -38 -10 -74 -25 -78 -32 -5 -7 -13 -11 -18 -7 -6 3 -13 -3
-16 -14 -3 -13 -16 -23 -33 -27 -17 -4 -48 -28 -75 -58 -26 -29 -59 -65 -75
-82 -58 -64 -101 -128 -90 -135 8 -5 9 -13 2 -26 -39 -73 -56 -134 -58 -214
-2 -47 -7 -99 -13 -117 -5 -17 -6 -34 -3 -38 4 -4 8 -23 9 -43 7 -141 10 -169
15 -177 3 -6 5 -38 4 -72 -1 -33 2 -59 7 -56 6 4 8 -3 11 -47 1 -8 5 -21 10
-28 12 -19 75 -222 96 -312 30 -123 41 -199 44 -305 2 -59 10 -118 20 -145 8
-25 16 -48 16 -53 0 -4 -24 -23 -53 -41 -52 -34 -55 -34 -134 -29 -74 5 -82 4
-103 -17 -12 -12 -34 -26 -49 -29 -19 -6 0 -10 64 -16 50 -4 99 -7 110 -6 119
7 172 8 180 1 11 -8 125 -40 143 -40 48 0 -42 39 -105 46 -31 3 -40 12 -21 19
22 9 340 -61 407 -90 33 -14 62 -25 65 -25 6 0 2 23 -7 38 -5 7 -3 12 7 12 9
0 15 5 14 12 -2 7 7 17 20 23 12 5 22 12 22 15 0 4 14 5 30 4 17 -1 30 2 30 6
0 5 15 4 33 0 30 -9 84 -8 91 1 9 11 36 74 36 84 0 6 19 22 42 35 22 14 63 46
91 73 27 26 55 47 62 47 7 0 18 7 25 16 28 32 120 66 190 69 81 4 82 4 78 27
-2 14 -18 31 -40 43 -30 17 -35 24 -25 34 10 11 8 12 -10 6 -15 -4 -23 -2 -23
5 0 6 3 9 8 7 4 -3 13 1 20 9 10 11 10 14 0 14 -8 0 -6 5 5 11 10 6 14 15 10
22 -9 14 -11 97 -2 91 4 -2 14 17 23 41 10 25 30 53 45 64 33 24 34 62 3 92
-12 11 -22 24 -22 29 0 11 52 3 99 -16 36 -15 58 -9 28 7 -9 6 -24 24 -33 40
-11 21 -21 29 -33 26 -10 -2 -23 3 -29 14 -9 14 -21 17 -53 14 -31 -3 -50 2
-78 20 -25 17 -48 24 -78 23 -49 -2 -53 0 -52 33 0 13 1 39 1 57 1 21 6 32 15
32 10 0 13 -9 11 -27 l-3 -28 85 -3 c48 -2 87 -8 91 -14 5 -8 12 -6 24 5 9 10
29 17 44 17 35 0 47 14 65 74 14 47 14 49 -20 129 -39 90 -62 124 -132 195
-26 26 -54 62 -61 80 -11 26 -29 40 -85 67 -39 19 -88 45 -109 58 -35 21 -36
24 -20 39 15 16 15 18 -9 27 -29 11 -72 77 -57 87 6 4 6 11 -2 20 -9 11 -5 20
21 44 32 30 46 33 125 31 64 -3 230 -59 261 -89 40 -40 92 -124 141 -229 42
-91 58 -110 60 -75 0 9 4 35 8 57 11 57 8 295 -4 309 -5 6 -19 38 -32 71 -12
33 -28 67 -35 76 -8 8 -14 21 -14 27 0 12 -88 125 -102 130 -4 2 -17 20 -28
41 -27 47 -102 99 -188 128 -63 21 -148 29 -182 16z m-57 -260 c-7 -2 -19 -2
-25 0 -7 3 -2 5 12 5 14 0 19 -2 13 -5z m4 -38 c0 -10 -6 -11 -24 -2 -12 5
-23 13 -23 17 0 4 11 5 23 3 13 -3 24 -11 24 -18z m48 -15 c3 -5 2 -10 -4 -10
-5 0 -13 5 -16 10 -3 6 -2 10 4 10 5 0 13 -4 16 -10z m124 -500 c67 -34 107
-96 99 -151 -3 -22 -6 -20 -33 21 -24 35 -40 48 -76 59 -41 12 -63 34 -87 84
-7 15 60 6 97 -13z m11 -110 c0 -11 5 -20 10 -20 6 0 22 -12 37 -26 l25 -25
-23 -25 c-14 -15 -19 -28 -14 -32 18 -13 17 -36 -6 -104 -21 -61 -25 -66 -43
-56 -11 6 -27 17 -34 25 -7 7 -19 13 -25 12 -9 0 -8 -2 1 -6 6 -2 12 -8 12
-13 0 -13 -94 1 -112 17 -20 18 -29 51 -17 59 6 4 6 11 -1 19 -6 7 -10 17 -9
21 1 5 -1 17 -5 26 -12 27 16 47 76 56 48 7 53 10 53 32 0 22 4 25 33 22 30
-3 33 -2 27 17 -4 12 -2 21 4 21 6 0 11 -9 11 -20z m240 -294 c0 -2 -8 -10
-17 -17 -16 -13 -17 -12 -4 4 13 16 21 21 21 13z m-255 -36 c3 -5 2 -10 -4
-10 -5 0 -13 5 -16 10 -3 6 -2 10 4 10 5 0 13 -4 16 -10z"/>
<path d="M3327 2909 c-18 -10 -18 -12 -1 -30 21 -23 34 -24 34 -4 0 8 5 15 10
15 6 0 10 -7 10 -15 0 -8 11 -31 25 -51 l25 -37 0 36 c0 49 -8 65 -41 82 -33
18 -38 18 -62 4z"/>
<path d="M3456 2824 c6 -75 17 -124 27 -124 13 0 1 104 -17 138 -13 25 -14 25
-10 -14z"/>
<path d="M3341 2661 c-16 -12 -22 -24 -18 -35 9 -23 24 -20 43 10 22 33 7 49
-25 25z"/>
<path d="M3894 1626 c-45 -30 -123 -76 -175 -103 -107 -55 -134 -80 -299 -278
-126 -152 -204 -219 -350 -300 -76 -43 -167 -106 -225 -156 -11 -10 -49 -43
-84 -73 -35 -31 -67 -56 -71 -56 -4 0 -15 9 -25 20 -20 23 -39 17 -30 -10 3
-10 1 -21 -5 -25 -5 -3 -10 -1 -10 6 0 7 -3 9 -6 6 -4 -4 -1 -13 5 -21 9 -10
9 -20 2 -33 -14 -25 -91 -98 -118 -112 l-23 -12 1 108 c1 60 0 119 -2 133 -2
14 0 34 4 46 4 12 1 28 -7 40 -14 18 -16 18 -32 2 -17 -16 -17 -19 -1 -36 23
-25 21 -35 -3 -29 -28 7 -46 -24 -55 -98 -9 -79 -10 -110 -1 -173 8 -61 -2
-85 -46 -108 l-31 -16 6 31 c9 44 -1 38 -24 -14 -19 -43 -49 -71 -63 -58 -3 3
-6 -1 -6 -9 0 -9 -11 -23 -25 -32 -28 -18 -60 -22 -49 -5 3 6 0 15 -7 20 -11
7 -9 10 9 15 18 5 23 12 19 30 -2 13 1 29 8 34 14 12 29 58 26 78 -1 6 3 12 9
12 5 0 9 3 8 8 -3 7 15 58 35 99 6 13 7 26 4 29 -4 4 1 20 10 35 17 28 17 30
-4 51 l-21 21 5 -42 c4 -27 2 -41 -6 -41 -6 0 -17 -11 -23 -25 -6 -14 -16 -25
-21 -25 -6 0 -19 -7 -29 -17 -17 -15 -18 -15 -18 2 0 10 5 35 12 57 15 50 4
62 -48 52 -22 -4 -33 -9 -26 -11 6 -3 12 -12 12 -21 0 -29 -35 -91 -58 -103
-20 -11 -21 -15 -8 -24 13 -10 11 -20 -19 -76 -19 -35 -34 -73 -35 -84 0 -11
-7 -31 -16 -43 -8 -12 -10 -22 -5 -22 17 0 12 -12 -15 -45 -17 -19 -24 -23
-20 -11 4 10 2 24 -4 31 -8 9 -6 14 5 19 10 4 15 15 13 30 -1 13 6 33 16 45
16 17 17 26 8 45 -7 17 -7 27 1 35 6 6 8 13 5 17 -4 3 -20 -9 -37 -26 l-30
-32 9 33 c6 19 10 35 10 36 0 2 16 21 36 43 20 22 34 46 31 53 -3 7 1 21 9 31
7 11 11 23 8 27 -2 4 7 16 21 25 32 21 23 35 -17 27 -23 -4 -34 -2 -44 11 -6
9 -21 18 -32 19 -19 1 -19 3 -4 43 16 42 16 42 -14 68 -16 14 -24 26 -17 26 6
0 15 -4 18 -10 3 -5 15 -10 26 -10 15 0 19 7 19 38 0 49 -10 82 -24 82 -12 0
-36 -45 -36 -67 0 -15 -26 -18 -34 -4 -3 5 5 29 19 52 15 28 22 52 19 66 -5
17 -2 23 10 23 21 0 21 36 0 48 -11 6 -17 23 -17 51 0 22 -4 41 -9 41 -6 0 -8
6 -5 13 14 36 -51 58 -82 29 -12 -11 -12 -17 0 -39 11 -21 11 -27 2 -30 -17
-6 -16 -30 1 -40 17 -10 57 -93 45 -93 -6 0 -9 -19 -9 -42 1 -24 -1 -56 -3
-73 -3 -16 -8 -66 -12 -110 -7 -95 -12 -115 -28 -115 -9 0 -12 50 -10 190 1
171 -2 197 -22 188 -3 -2 -7 -196 -9 -433 -2 -237 -7 -463 -11 -502 l-8 -73
383 0 382 0 136 134 c76 73 184 176 242 227 58 52 132 121 165 154 33 34 79
73 102 89 42 28 67 72 64 112 -1 15 5 23 21 28 42 11 63 6 96 -25 30 -27 34
-36 35 -85 l2 -56 43 5 c24 2 51 12 60 20 9 8 46 25 82 37 36 12 67 25 70 28
3 4 38 29 78 56 40 26 76 54 80 60 8 13 112 95 177 138 42 28 217 65 253 54
17 -6 17 -2 7 61 l-11 68 -85 -3 c-46 -2 -110 -10 -142 -18 -32 -8 -67 -12
-77 -9 -23 7 -36 43 -22 57 6 6 62 12 124 13 78 2 124 7 150 19 21 9 51 14 70
11 18 -3 28 -3 22 0 -7 4 -8 22 -1 61 14 76 8 81 -93 65 -44 -7 -99 -19 -122
-27 -22 -8 -53 -14 -68 -14 -37 0 -61 -10 -54 -21 7 -13 -14 -39 -32 -39 -8 0
-14 7 -14 15 0 8 -4 15 -8 15 -14 0 -53 41 -47 50 3 4 40 11 83 15 126 11 246
40 236 57 -4 7 1 8 16 3 12 -4 20 -3 17 2 -3 4 13 7 36 5 36 -3 40 -2 26 10
-10 7 -19 35 -22 66 -4 29 -9 57 -12 62 -10 16 -46 12 -145 -19 -83 -26 -198
-51 -237 -51 -7 0 -13 5 -13 10 0 6 13 10 29 10 36 0 69 14 149 64 70 44 82
67 62 127 -18 53 -37 51 -136 -15z m-1444 -915 c0 -12 -20 -25 -27 -18 -7 7 6
27 18 27 5 0 9 -4 9 -9z m985 -71 c-3 -5 -1 -11 5 -15 5 -3 10 -11 10 -17 0
-7 -5 -6 -15 2 -8 6 -18 9 -24 6 -5 -3 -4 5 2 18 7 13 15 22 19 19 5 -2 6 -8
3 -13z m-1625 -30 c0 -5 -5 -10 -11 -10 -5 0 -7 5 -4 10 3 6 8 10 11 10 2 0 4
-4 4 -10z m300 -334 c0 -2 -7 -7 -16 -10 -8 -3 -12 -2 -9 4 6 10 25 14 25 6z
m-190 -170 c0 -2 -9 -6 -20 -9 -11 -3 -18 -1 -14 4 5 9 34 13 34 5z"/>
<path d="M4233 1553 c9 -2 25 -2 35 0 9 3 1 5 -18 5 -19 0 -27 -2 -17 -5z"/>
<path d="M1149 1520 c-20 -16 -21 -19 -7 -20 10 0 22 9 28 20 13 25 8 25 -21
0z"/>
<path d="M1110 1520 c-9 -6 -10 -10 -3 -10 6 0 15 5 18 10 8 12 4 12 -15 0z"/>
<path d="M1029 1479 c-8 -5 -27 -9 -42 -9 -21 0 -44 -15 -85 -55 -31 -30 -60
-55 -64 -55 -5 0 -19 -25 -32 -55 -14 -30 -38 -74 -54 -98 -17 -23 -82 -146
-145 -272 -124 -247 -137 -288 -137 -424 0 -56 3 -72 11 -61 8 12 9 11 5 -5
-3 -11 -10 -92 -15 -180 -6 -88 -15 -176 -21 -195 -22 -76 -61 -70 428 -69
240 1 429 3 419 6 -11 3 -16 10 -13 20 3 8 6 21 6 30 0 9 6 13 15 9 10 -3 15
1 15 12 0 12 -16 25 -42 37 l-43 19 40 12 40 11 -78 37 c-43 20 -75 40 -72 46
3 5 0 10 -7 10 -13 1 -99 100 -107 123 -2 7 -9 15 -15 19 -35 23 -55 272 -32
403 9 50 16 109 16 132 0 23 5 54 12 70 6 15 11 31 10 36 -3 13 25 7 38 -8 12
-14 7 -20 -14 -16 -5 1 -4 -5 3 -13 7 -8 13 -47 14 -88 1 -47 7 -78 16 -88 13
-13 12 -15 -3 -18 -13 -3 -15 -7 -5 -18 7 -8 7 -14 1 -14 -18 0 -5 -141 18
-205 13 -33 26 -64 31 -70 5 -5 9 -16 9 -25 0 -22 60 -84 101 -104 36 -18 74
-21 64 -6 -3 6 -15 10 -25 10 -13 0 -17 5 -14 15 4 8 10 13 14 10 5 -3 11 -1
14 4 3 5 15 7 26 4 26 -7 27 18 0 34 -25 16 -53 70 -46 89 3 8 -1 17 -8 20 -8
3 -12 14 -9 25 3 11 0 19 -6 19 -7 0 -10 4 -7 9 3 4 37 11 76 15 38 4 70 11
70 16 0 16 -55 70 -72 70 -24 0 -23 17 3 30 16 9 18 14 9 25 -6 8 -17 12 -24
9 -10 -4 -12 2 -9 19 3 13 -2 28 -10 35 -8 7 -13 22 -10 32 3 11 1 20 -5 20
-5 0 -15 14 -22 31 -7 17 -20 38 -29 47 -12 11 -13 16 -3 20 14 4 16 48 3 56
-15 10 -23 59 -11 66 8 5 7 12 -4 23 -9 9 -12 18 -7 21 11 7 2 46 -11 46 -5 0
-6 9 -3 20 4 12 2 20 -5 20 -6 0 -8 5 -5 10 3 6 1 10 -6 10 -7 0 -4 7 7 15 10
8 28 15 38 15 15 0 17 3 9 11 -9 9 -20 9 -43 -1 -17 -7 -33 -10 -37 -6 -3 3
-1 6 6 6 7 0 19 7 27 15 14 13 13 16 -7 23 -15 6 -19 11 -10 16 6 4 18 3 25
-3 9 -8 22 -8 44 0 38 13 71 -2 128 -63 99 -103 282 -454 304 -583 23 -137 39
-249 34 -256 -2 -4 0 -18 5 -31 12 -29 13 293 1 367 -5 38 -8 42 -9 18 -2 -57
-20 -45 -41 29 -40 141 -130 310 -221 413 -62 71 -175 167 -223 190 -19 9 -36
24 -39 34 -3 12 -19 21 -48 26 -76 13 -85 13 -100 4z m48 -374 c8 -9 13 -18
10 -21 -9 -9 -48 16 -42 27 8 13 14 11 32 -6z m236 -472 c-7 -2 -19 -2 -25 0
-7 3 -2 5 12 5 14 0 19 -2 13 -5z"/>
<path d="M1516 1482 c-4 -6 4 -37 18 -69 13 -32 30 -94 36 -138 7 -44 17 -85
22 -92 5 -7 7 -21 3 -33 -4 -13 -2 -20 7 -20 10 0 10 -2 -1 -9 -8 -6 -10 -14
-5 -22 5 -8 9 -19 10 -25 3 -19 94 -239 94 -227 0 6 -4 22 -9 35 -5 13 -11 50
-15 83 -4 33 -10 80 -15 105 -37 193 -55 281 -68 316 -17 48 -68 111 -77 96z"/>
<path d="M4295 1327 c33 -19 78 -44 100 -57 l40 -24 -24 27 c-13 14 -27 24
-31 22 -4 -3 -18 4 -31 14 -32 24 -85 51 -101 51 -7 0 14 -15 47 -33z"/>
<path d="M2027 1165 c-9 -7 -17 -16 -17 -20 0 -9 51 3 63 14 14 14 -29 19 -46
6z"/>
<path d="M2046 1131 c-4 -5 0 -11 6 -14 7 -2 1 -8 -14 -12 -16 -4 -28 -11 -28
-16 0 -5 6 -6 14 -3 7 3 20 -2 29 -10 22 -23 36 -20 30 7 -5 18 -3 20 8 9 8
-7 14 -20 14 -29 0 -9 5 -18 12 -20 9 -3 9 5 0 33 -6 21 -19 39 -29 42 -10 2
-18 8 -18 13 0 12 -17 12 -24 0z"/>
<path d="M2310 1066 c-27 -10 -38 -21 -48 -51 -17 -51 -18 -103 -3 -118 10 -9
12 -7 10 13 -4 47 1 81 11 75 6 -3 10 -2 10 4 0 5 -6 12 -12 14 -7 3 -3 6 9 6
17 1 21 -3 16 -16 -6 -16 -5 -17 12 -3 17 14 18 13 12 -4 -8 -19 9 -49 23 -41
4 3 7 -3 6 -13 -1 -12 5 -16 22 -14 13 2 32 -4 43 -14 22 -20 26 -10 5 12 -8
8 -22 14 -31 14 -10 0 -15 7 -13 18 2 13 -3 16 -22 15 -22 -2 -23 -2 -7 8 18
10 18 11 0 24 -17 13 -16 14 5 8 21 -5 22 -4 11 21 -7 14 -16 26 -21 26 -18 0
-7 19 15 23 18 4 19 4 2 5 -11 0 -36 -5 -55 -12z"/>
<path d="M1968 1033 c7 -3 16 -2 19 1 4 3 -2 6 -13 5 -11 0 -14 -3 -6 -6z"/>
<path d="M1982 1002 c-16 -11 -12 -69 5 -84 8 -6 11 -18 8 -27 -13 -44 -14
-91 0 -91 19 0 48 64 40 89 -4 13 1 27 13 39 19 19 19 20 -11 37 -17 10 -26
20 -19 23 7 2 12 8 12 13 0 11 -30 12 -48 1z"/>
<path d="M2710 1001 c0 -6 4 -13 10 -16 6 -3 7 1 4 9 -7 18 -14 21 -14 7z"/>
<path d="M2078 993 c7 -3 16 -2 19 1 4 3 -2 6 -13 5 -11 0 -14 -3 -6 -6z"/>
<path d="M2370 898 c1 -7 12 -33 25 -58 l24 -45 -2 37 c-1 21 -6 38 -11 38 -4
0 -6 6 -3 14 3 8 -1 17 -9 20 -22 8 -24 8 -24 -6z"/>
<path d="M2440 840 c0 -5 5 -10 10 -10 6 0 10 5 10 10 0 6 -4 10 -10 10 -5 0
-10 -4 -10 -10z"/>
<path d="M2080 827 c0 -10 8 -17 18 -17 9 0 13 4 7 8 -5 4 -13 11 -17 16 -5 5
-8 2 -8 -7z"/>
<path d="M2125 820 c-3 -5 -1 -10 4 -10 6 0 11 5 11 10 0 6 -2 10 -4 10 -3 0
-8 -4 -11 -10z"/>
<path d="M2275 807 c-8 -19 -2 -31 13 -26 5 2 6 13 2 24 -7 19 -8 19 -15 2z"/>
<path d="M2273 723 c-1 -27 1 -40 4 -30 2 9 9 17 14 17 14 0 7 52 -7 57 -6 2
-11 -16 -11 -44z"/>
<path d="M2197 719 c7 -7 15 -10 18 -7 3 3 -2 9 -12 12 -14 6 -15 5 -6 -5z"/>
<path d="M2550 663 c8 -3 26 -15 40 -27 22 -19 23 -19 10 -1 -20 27 -32 35
-50 34 -13 -1 -13 -1 0 -6z"/>
<path d="M1320 580 c0 -5 7 -10 16 -10 8 0 13 -4 9 -10 -3 -5 -13 -6 -23 -3
-15 6 -15 5 -3 -10 7 -9 19 -17 26 -17 7 0 18 -7 25 -15 7 -8 19 -15 27 -15
22 0 11 33 -15 46 -13 6 -23 14 -23 18 3 21 -1 26 -19 26 -11 0 -20 -4 -20
-10z"/>
<path d="M2300 550 c-8 -37 -8 -50 -1 -54 14 -9 22 24 11 42 -5 10 -10 15 -10
12z"/>
<path d="M2276 405 c-9 -14 -13 -25 -8 -25 5 0 14 11 20 25 6 14 10 25 8 25
-2 0 -11 -11 -20 -25z"/>
<path d="M1362 389 c2 -7 10 -15 17 -17 8 -3 12 1 9 9 -2 7 -10 15 -17 17 -8
3 -12 -1 -9 -9z"/>
<path d="M3141 68 c0 -13 3 -17 6 -10 2 6 14 12 24 12 11 0 17 5 14 10 -3 6
-15 10 -26 10 -13 0 -19 -7 -18 -22z"/>
</g>
</svg>
